<?xml version="1.0" encoding="utf-8"?>
<!-- Generator: Adobe Illustrator 26.2.1, SVG Export Plug-In . SVG Version: 6.00 Build 0)  -->
<svg version="1.1" id="Layer_1" xmlns="http://www.w3.org/2000/svg" xmlns:xlink="http://www.w3.org/1999/xlink" x="0px" y="0px"
	 viewBox="0 0 2000 2000" style="enable-background:new 0 0 2000 2000;" xml:space="preserve">
<style type="text/css">
	.st0{fill:#82D1E3;}
	.st1{fill:url(#SVGID_1_);}
	.st2{fill:#00A199;}
	.st3{fill:#009898;stroke:#009898;stroke-width:33;stroke-miterlimit:10;}
	.st4{fill:#56C6DE;}
</style>
<g>
	<g>
		<path class="st0" d="M999.74,1772.54c-429.54,0-779-348.87-779-777.68s349.46-777.68,779-777.68s779,348.87,779,777.68
			S1429.28,1772.54,999.74,1772.54z M999.74,222.61c-426.54,0-773.55,346.43-773.55,772.25s347.02,772.25,773.55,772.25
			s773.55-346.43,773.55-772.25S1426.28,222.61,999.74,222.61z"/>
	</g>
	
		<radialGradient id="SVGID_1_" cx="-2811.9329" cy="13816.8135" r="4423.8535" gradientTransform="matrix(0.4375 0 0 0.434 2234.8003 -4070.106)" gradientUnits="userSpaceOnUse">
		<stop  offset="0" style="stop-color:#08394E"/>
		<stop  offset="1" style="stop-color:#0B1A2C"/>
	</radialGradient>
	<path class="st1" d="M997.86,1895.68L997.86,1895.68c-494.71,0-895.74-401.04-895.74-895.74v0
		c0-494.71,401.04-895.74,895.74-895.74h0c494.71,0,895.74,401.04,895.74,895.74v0C1893.61,1494.64,1492.57,1895.68,997.86,1895.68z
		"/>
	<g>
		<path class="st2" d="M1001.79,1827.81c-460.34,0-834.86-372.52-834.86-830.41s374.52-830.41,834.86-830.41
			s834.86,372.52,834.86,830.41S1462.14,1827.81,1001.79,1827.81z M1001.79,172.79c-457.13,0-829.03,369.92-829.03,824.61
			c0,468.32,339.79,824.61,829.03,824.61c457.13,0,829.03-369.92,829.03-824.61S1458.92,172.79,1001.79,172.79z"/>
	</g>
	<g>
		<path class="st3" d="M999.74,1892.55c-496.26,0-900-400.43-900-892.62s403.74-892.62,900-892.62s900,400.43,900,892.62
			S1496,1892.55,999.74,1892.55z M999.74,113.55c-492.8,0-893.71,397.63-893.71,886.38s400.92,886.38,893.71,886.38
			s893.71-397.63,893.71-886.38S1492.54,113.55,999.74,113.55z"/>
	</g>
	<g>
		<path class="st3" d="M995.82,1827.81c-460.27,0-834.72-371.38-834.72-827.87s374.45-827.87,834.72-827.87
			s834.72,371.38,834.72,827.87S1456.09,1827.81,995.82,1827.81z M995.82,177.85c-457.05,0-828.89,368.79-828.89,822.09
			s371.84,822.09,828.89,822.09s828.89-368.79,828.89-822.09S1452.88,177.85,995.82,177.85z"/>
	</g>
	<g>
		<polygon class="st4" points="549.41,612.08 546.12,931.89 677.35,1063.09 722.86,1063.09 722.86,1049.81 780.75,1049.81 
			780.75,1107.72 722.86,1107.72 722.86,1094.47 664.38,1094.47 514.77,944.86 514.77,607.14 		"/>
		<polyline class="st4" points="1302.24,601.64 1025.8,605.99 796.65,605.99 750.79,651.82 750.79,857.12 796.65,902.95 
			1327.89,902.95 1459.08,1034.21 1459.05,1099.46 1458.77,1102.45 1370.57,1190.68 1370.57,1323.48 1289.51,1418.83 
			1247.8,1419.23 1083.97,1420.13 1083.8,1406.88 1025.88,1407.63 1026.63,1465.51 1084.54,1464.76 1084.37,1451.48 
			1251.88,1451.78 1306.75,1451.58 1401.92,1336.45 1401.92,1206.36 1402.24,1203.37 1490.4,1115.14 1490.47,1021.21 1340.86,871.6 
			809.62,871.6 782.17,844.12 782.17,664.82 809.62,637.35 1271.3,637.35 		"/>
		<polygon class="st4" points="901.82,943.83 901.82,1001.72 959.74,1001.72 959.74,988.47 1234.19,988.47 1300.26,1054.54 
			1300.26,1090.3 1358.15,1090.3 1358.15,1032.38 1322.45,1032.38 1247.16,957.12 959.74,957.12 959.74,943.83 		"/>
		<polyline class="st4" points="1115.12,1669.82 1120.63,1669.82 1120.63,1612.41 1063.24,1612.41 1063.24,1669.82 1083.08,1669.82 
					"/>
		<g>
			<g>
				<polyline class="st4" points="707.54,1348.32 705.75,1183.7 560.06,1182.8 558.66,1411.03 779.56,1721.2 873.42,1721.2 
					961.15,1633.47 1087.06,1633.44 1111.35,1664.51 973.91,1664.55 886.24,1752.3 755.27,1752.27 527.24,1423.83 528.89,1151.25 
					737.31,1152.53 736.28,1316.97 				"/>
			</g>
			<polygon class="st4" points="826.6,1690.16 869.45,1651.24 830.51,1608.36 820.7,1617.27 637.82,1378.16 640.65,1279.89 
				667.12,1255.85 628.2,1213 585.33,1251.94 609.33,1278.37 604.24,1384.7 797.49,1638.35 787.66,1647.28 			"/>
		</g>
		<g>
			<g>
				<polygon class="st4" points="1302.44,601.81 1303.83,804.15 1449.52,805.23 1451.21,577 1230.69,266.56 1136.83,266.44 
					1048.99,354.06 923.08,353.93 898.83,322.83 1036.27,322.97 1124.05,235.32 1255.02,235.52 1495.8,564.31 1493.81,836.89 
					1272.23,835.28 1271.3,637.35 				"/>
			</g>
			<polygon class="st4" points="1192.72,294.59 1149.82,333.45 1188.71,376.37 1198.53,367.48 1381.11,606.82 1378.15,705.08 
				1351.65,729.09 1390.52,771.99 1433.44,733.1 1409.47,706.65 1414.69,600.32 1221.76,346.43 1231.61,337.51 			"/>
		</g>
		<polyline class="st4" points="707.54,1348.32 1206.17,1348.32 1252,1302.46 1252,1097.2 1206.17,1051.33 891.34,1051.33 
			888.35,1051.02 800.15,962.82 711.6,962.82 632.25,883.47 632.25,630.83 711.6,551.48 897.51,551.48 897.51,564.76 955.39,564.76 
			955.39,506.87 897.51,506.87 897.51,520.13 698.6,520.13 600.9,617.86 600.9,896.43 698.6,994.17 784.47,994.17 787.46,994.49 
			875.69,1082.68 1193.17,1082.72 1220.65,1110.16 1220.65,1286.81 1219.11,1291.03 1193.17,1316.97 736.28,1316.97 		"/>
		<polygon class="st4" points="722.45,406.93 722.45,464.82 780.37,464.82 780.37,451.57 1054.82,451.57 1120.89,517.64 
			1120.89,553.39 1178.78,553.39 1178.78,495.48 1143.08,495.48 1067.79,420.21 780.37,420.21 780.37,406.93 		"/>
		<polyline class="st4" points="920.94,364.36 926.45,364.36 926.45,306.96 869.06,306.96 869.06,364.36 888.9,364.36 		"/>
		<g>
			<g>
				<polyline class="st4" points="1465.5,1272.08 1460,1272.05 1460.34,1214.65 1517.73,1214.99 1517.39,1272.4 1497.54,1272.28 
									"/>
				<g>
					<polyline class="st4" points="1026.07,1720.23 1250.65,1721.59 1473.42,1412.76 1472.81,1272.13 1504.17,1272.32 
						1504.76,1425.75 1274.75,1752.81 1025.88,1751.36 					"/>
				</g>
			</g>
			<polyline class="st4" points="988.5,1757.17 983,1757.14 983.34,1699.73 1040.73,1700.08 1040.38,1757.48 1020.54,1757.36 			"/>
		</g>
		<g>
			<polyline class="st4" points="991.68,269.4 767.09,269.4 551.12,579.57 547.64,720.19 514.64,720.19 514.77,566.76 742.8,238.33 
				991.68,238.27 			"/>
		</g>
		<polyline class="st4" points="1029.02,232.23 1034.53,232.23 1034.53,289.64 977.14,289.64 977.14,232.23 996.98,232.23 		"/>
		<polygon class="st4" points="1277.24,1571.01 1276.71,1513.13 1218.8,1513.66 1218.92,1526.91 944.48,1529.41 877.81,1463.94 
			877.49,1428.18 819.6,1428.71 820.13,1486.62 855.82,1486.3 931.8,1560.87 1219.2,1558.26 1219.32,1571.54 		"/>
	</g>
</g>
</svg>
